<svg xmlns="http://www.w3.org/2000/svg" width="20" height="20" viewBox="0 0 20 20"><defs><style>.a{fill:#8dd9ff;}.b{fill:#fff;}.c{fill:#b2b9c9;}.d{fill:#9fc3dd;}.e{fill:#b39191;}.f{fill:#7faab8;}.g{fill:#eee1c2;}.h{fill:#43ab5f;}.i{fill:#71be63;}.j{fill:#94d75b;}.k{fill:#b0eb81;}.l{fill:#674447;}.m{fill:#8c665b;}.n{fill:#fdefdb;}.o{fill:#a29b91;}.p{fill:#88b7c6;}.q{fill:#e9b668;}.r{fill:#9e8282;}</style></defs><g transform="translate(0)"><circle class="a" cx="10" cy="10" r="10"/><g transform="translate(2.187 8.065)"><rect class="b" width="0.878" height="1.779"/></g><g transform="translate(17.786 8.701)"><rect class="c" width="1.081" height="1.455"/></g><g transform="translate(18.125 9.531)"><path class="d" d="M464,246.031h1.753a10.07,10.07,0,0,0,.122-1.562c0-.157,0-.313-.012-.469H464Z" transform="translate(-464 -244)"/></g><g transform="translate(0 9.887)"><path class="e" d="M0,253.1c0,.038,0,.075,0,.113a10.07,10.07,0,0,0,.122,1.562H1.914V253.1Z" transform="translate(0 -253.102)"/></g><g transform="translate(2.812 8.125)"><path class="c" d="M72,211.438h1.875L73.563,208,72,208.625v2.813" transform="translate(-72 -208)"/></g><g transform="translate(12.061 8.437)"><rect class="f" width="1.816" height="3.125"/></g><g transform="translate(4.375 6.875)"><rect class="g" width="1.25" height="4.687"/></g><g transform="translate(11.25 7.5)"><rect class="g" width="1.25" height="4.062"/></g><g transform="translate(8.437 6.719)"><rect class="d" width="1.25" height="4.844"/></g><g transform="translate(14.336 8.75)"><rect class="c" width="1.816" height="2.812"/></g><g transform="translate(16.309 9.219)"><rect class="e" width="1.816" height="2.344"/></g><g transform="translate(0.122 11.562)"><path class="h" d="M3.131,296a10,10,0,0,0,19.755,0Z" transform="translate(-3.131 -296)"/></g><g transform="translate(0.122 11.562)"><path class="i" d="M21.48,299.75A9.938,9.938,0,0,0,22.886,296H3.131a9.939,9.939,0,0,0,1.406,3.75Z" transform="translate(-3.131 -296)"/></g><g transform="translate(0.122 11.562)"><path class="j" d="M3.619,297.875H22.4A9.909,9.909,0,0,0,22.886,296H3.131A9.912,9.912,0,0,0,3.619,297.875Z" transform="translate(-3.131 -296)"/></g><g transform="translate(0.122 11.562)"><path class="k" d="M3.253,296.625H22.765c.046-.206.089-.414.122-.625H3.131C3.164,296.211,3.206,296.419,3.253,296.625Z" transform="translate(-3.131 -296)"/></g><g transform="translate(5.389 11.562)"><path class="l" d="M147.184,303.311,142.573,296l-4.611,7.311a10,10,0,0,0,9.222,0Z" transform="translate(-137.962 -296)"/></g><g transform="translate(8.817 11.562)"><path class="m" d="M228.092,297.875,226.91,296l-1.183,1.875Z" transform="translate(-225.727 -296)"/></g><g transform="translate(9.687 4.844)"><path class="n" d="M249.563,130.719v-5.781L248,124v6.719" transform="translate(-248 -124)"/></g><g transform="translate(6.875 2.656)"><path class="b" d="M176,69.094v7.813h1.563V68Z" transform="translate(-176 -68)"/></g><g transform="translate(13.437 5.078)"><rect class="b" width="1.25" height="6.484"/></g><g transform="translate(3.75 10)"><path class="o" d="M97.875,257.563V256H96v1.563" transform="translate(-96 -256)"/></g><g transform="translate(5.625 7.812)"><path class="d" d="M145.8,203.75V200H144v3.75" transform="translate(-144 -200)"/></g><g transform="translate(10.625 10.312)"><path class="p" d="M273.875,265.25V264l-1.875.313v.938" transform="translate(-272 -264)"/></g><g transform="translate(15.625 8.437)"><rect class="n" width="1.25" height="3.125"/></g><g transform="translate(10 11.562)"><path class="b" d="M256,296l4.134,7.543q.242-.11.477-.232Z" transform="translate(-256 -296)"/></g><g transform="translate(5.389 11.562)"><path class="b" d="M142.573,296l-4.611,7.311q.235.122.477.232Z" transform="translate(-137.962 -296)"/></g><g transform="translate(10 11.562)"><path class="q" d="M256.866,304.4,256,296l.29,8.429Q256.58,304.42,256.866,304.4Z" transform="translate(-256 -296)"/></g><g transform="translate(9.134 11.562)"><path class="q" d="M234.684,296l-.866,8.4q.286.025.577.033Z" transform="translate(-233.818 -296)"/></g><g transform="translate(1.562 9.375)"><rect class="d" width="1.25" height="2.187"/></g><g transform="translate(12.871 10.713)"><rect class="o" width="2.09" height="0.85"/></g><g transform="translate(8.437 8.535)"><rect class="e" width="0.696" height="3.027"/></g><g transform="translate(4.687 10.937)"><rect class="r" width="1.784" height="0.625"/></g><g transform="translate(3.216 10.937)"><rect class="g" width="0.836" height="0.625"/></g><g transform="translate(8.788 10.937)"><rect class="g" width="0.691" height="0.625"/></g><g transform="translate(14.687 10.937)"><rect class="g" width="1.113" height="0.625"/></g><g transform="translate(11.183 11.109)"><rect class="r" width="0.878" height="0.453"/></g><g transform="translate(15.372 10.547)"><rect class="r" width="0.878" height="1.016"/></g><g transform="translate(17.686 10.794)"><rect class="r" width="1.832" height="0.768"/></g><g transform="translate(1.124 10.547)"><rect class="r" width="0.878" height="1.016"/></g><g transform="translate(7.031 10.547)"><rect class="c" width="0.663" height="1.016"/></g><g transform="translate(13.545 11.109)"><rect class="c" width="0.663" height="0.453"/></g><g transform="translate(0.899 11.109)"><rect class="c" width="0.663" height="0.453"/></g><g transform="translate(3.842 11.25)"><rect class="c" width="1.275" height="0.312"/></g></g></svg>