<svg xmlns="http://www.w3.org/2000/svg" width="18.002" height="18.003" viewBox="0 0 18.002 18.003"><defs><style>.a{fill:#2c3b73;}.b{fill:#293939;}.c{fill:#47568c;}.d{fill:#9bfcff;}.e{fill:#76e2f8;}</style></defs><g transform="translate(0 0)"><path class="a" d="M379.541,379.54a2.016,2.016,0,0,1-2.84,0l-6-6,1.42-1.42,1.42-1.42,6,6A2.017,2.017,0,0,1,379.541,379.54Z" transform="translate(-362.124 -362.123)"/><path class="b" d="M379.541,399.421a2.016,2.016,0,0,1-2.84,0l-6-6,1.42-1.42Z" transform="translate(-362.124 -382.003)"/><path class="c" d="M254.01,244.129a6.987,6.987,0,1,0,0,9.881A6.965,6.965,0,0,0,254.01,244.129Z" transform="translate(-242.074 -242.074)"/><path class="a" d="M254.01,282.78a6.987,6.987,0,0,1-9.881-9.881Z" transform="translate(-242.074 -270.844)"/><path class="d" d="M280.506,280.507a5.007,5.007,0,1,1,0-7.081A5.016,5.016,0,0,1,280.506,280.507Z" transform="translate(-269.97 -269.97)"/><path class="e" d="M280.506,300.981a5.007,5.007,0,1,1-7.081-7.081Z" transform="translate(-269.97 -290.444)"/></g></svg>