<?xml version="1.0" encoding="utf-8"?>
<!-- Generator: Adobe Illustrator 19.0.0, SVG Export Plug-In . SVG Version: 6.00 Build 0)  -->
<svg version="1.1" id="Layer_1" xmlns="http://www.w3.org/2000/svg" xmlns:xlink="http://www.w3.org/1999/xlink" x="0px" y="0px"
	 viewBox="0 0 93 90" style="enable-background:new 0 0 93 90;" xml:space="preserve">
<style type="text/css">
	.st0{clip-path:url(#SVGID_2_);}
	.st1{fill:#93C840;}
</style>
<g>
	<defs>
		<path id="SVGID_1_" d="M84,74.5L84,74.5c-0.2,0-0.4,0.1-0.5,0.1L74,78.6c-0.7,0.3-1.1,1.2-0.8,1.9c0.3,0.7,1.2,1.1,1.9,0.8l9.5-4
			c0.7-0.3,1-1,0.9-1.6C85.4,75,84.7,74.5,84,74.5z M80.2,70.1c-0.2,0-0.4,0.1-0.5,0.1L74,72.7c-0.5,0.2-0.8,0.6-0.9,1.2
			c-0.1,0.5,0.2,1,0.6,1.3c0.4,0.3,1,0.4,1.4,0.2l5.6-2.4c0.6-0.3,1-1,0.9-1.7C81.5,70.6,80.9,70.1,80.2,70.1z M45,52v25.9
			l-19.6,8.4V60.5L45,52z M90,52v25.9l-19.6,8.4V60.5L90,52z M47.9,52l4.8,2.1v12.2c0,0.5,0.3,1,0.7,1.2c0.4,0.3,1,0.3,1.4,0.1
			l2.7-1.4l3.1,4.6c0.3,0.5,0.9,0.8,1.5,0.8c0.6-0.1,1.1-0.5,1.2-1.1c0,0,0-0.1,0-0.1c0,0,0,0,0,0c0,0,0-0.1,0-0.1c0,0,0,0,0,0
			c0,0,0-0.1,0-0.1V58.7l4.2,1.8v25.9l-19.6-8.4V52z M2.9,52l4.8,2.1v12.2c0,0.5,0.3,1,0.7,1.2c0.4,0.3,1,0.3,1.4,0.1l2.7-1.4
			l3.1,4.7c0.4,0.5,1,0.8,1.6,0.6c0.6-0.2,1-0.8,1-1.4V58.7l4.2,1.8v25.9L2.9,77.9V52z M84.3,48.3l3.5,1.5L69,57.9l-3.5-1.5
			L84.3,48.3z M39.3,48.3l3.5,1.5L24,57.9l-3.5-1.5L39.3,48.3z M76.2,44.8l4.5,1.9l-19.3,8.3c-0.6,0.2-0.9,0.8-0.9,1.4
			c0,0,0,0.1,0,0.1v8.7l-1.2-1.8c-0.4-0.6-1.2-0.8-1.9-0.5l-1.7,0.9V53.6L76.2,44.8z M31.2,44.8l4.5,1.9l-19.3,8.3
			c-0.6,0.2-0.9,0.8-0.9,1.5c0,0,0,0.1,0,0.1v8.7l-1.2-1.8c-0.4-0.6-1.2-0.8-1.9-0.5l-1.8,0.9V53.6L31.2,44.8z M69,41.7l3.5,1.5
			l-18.8,8.1l-3.5-1.5L69,41.7z M24,41.7l3.5,1.5L8.6,51.3l-3.5-1.5L24,41.7z M67.6,13.3v25.8L48,47.6V21.8L67.6,13.3z M25.5,13.3
			l4.8,2.1v12.2c0,0.5,0.3,1,0.7,1.2c0.4,0.3,1,0.3,1.4,0.1l2.7-1.4l3.1,4.6c0.3,0.6,0.9,0.9,1.5,0.8c0.6-0.1,1.1-0.6,1.2-1.2
			c0,0,0,0,0,0c0,0,0-0.1,0-0.1c0,0,0,0,0,0c0,0,0-0.1,0-0.1V20l4.2,1.8v25.9l-19.6-8.4V13.3z M61.9,9.6l3.5,1.5l-18.8,8.1L43,17.7
			L61.9,9.6z M53.7,6.1l4.5,1.9l-19.3,8.3c-0.7,0.3-1.1,1-0.9,1.8v8.5l-1.2-1.8c-0.4-0.6-1.2-0.8-1.9-0.5l-1.7,0.9V14.9L53.7,6.1z
			 M46.5,3L50,4.5l-18.8,8.1l-3.5-1.5L46.5,3z M46.5,0C46.5,0,46.4,0,46.5,0c-0.1,0-0.2,0-0.2,0c0,0,0,0-0.1,0c0,0,0,0,0,0
			c0,0-0.1,0-0.1,0c0,0,0,0,0,0c0,0,0,0-0.1,0c0,0,0,0-0.1,0L23.8,9.7c-0.6,0.1-1.1,0.7-1.2,1.3c0,0,0,0,0,0c0,0,0,0,0,0
			c0,0.1,0,0.2,0,0.3v27.9L1.2,48.4c-0.4,0.1-0.7,0.3-1,0.6c0,0,0,0,0,0c0,0,0,0,0,0s0,0,0,0C0,49.4-0.1,49.8,0,50.2v28.7
			c0,0,0,0,0,0c0,0,0,0,0,0c0,0,0,0.1,0,0.1c0,0.5,0.4,1,0.9,1.2l22.2,9.5c0.2,0.2,0.5,0.3,0.9,0.3c0.3,0,0.6-0.1,0.9-0.3l21.7-9.3
			l21.6,9.3c0.2,0.2,0.5,0.3,0.8,0.3c0.3,0,0.6-0.1,0.9-0.3L92,80.2c0.6-0.2,0.9-0.8,0.9-1.4V50.2c0.1-0.4,0-0.8-0.2-1.2
			c-0.2-0.3-0.6-0.5-0.9-0.6l-21.3-9.2v-28c0-0.1,0-0.2,0-0.3c-0.1-0.7-0.5-1.2-1.2-1.3L47.2,0.2C47,0.1,46.9,0,46.7,0
			c0,0-0.1,0-0.1,0C46.6,0,46.5,0,46.5,0z"/>
	</defs>
	<clipPath id="SVGID_2_">
		<use xlink:href="#SVGID_1_"  style="overflow:visible;"/>
	</clipPath>
	<g class="st0">
		<rect x="-5" y="-5" class="st1" width="103" height="100"/>
	</g>
</g>
</svg>
