<svg xmlns="http://www.w3.org/2000/svg" width="17.998" height="17.999" viewBox="0 0 17.998 17.999"><defs><style>.a{fill:#d75a4a;}.b{fill:#ed8a19;}.c{fill:#c7cac7;}.d{fill:#fbce9d;}.e{fill:#38454f;}.f{fill:#f2ecbf;}.g{fill:#ebba16;}</style></defs><g transform="translate(0 0)"><path class="a" d="M39.6.792a2.7,2.7,0,1,1,3.824,3.824Z" transform="translate(-26.215 0)"/><path class="b" d="M24.919,17.9l-8.758,8.758-.179,1.613,9.654-9.655h0Z" transform="translate(-10.581 -11.85)"/><path class="b" d="M10.325,22.614l1.613-.179L20.7,13.677l-1.434-1.434L10.5,21Z" transform="translate(-6.835 -8.105)"/><path class="b" d="M15.04,9.424l-.717-.717h0L4.668,18.361l1.613-.179Z" transform="translate(-3.09 -5.764)"/><path class="c" d="M41.3,6.884h0l.717-.717L38.193,2.343l-.717.717h0Z" transform="translate(-24.81 -1.551)"/><path class="c" d="M35.126,5.879h0l-.478.478h0l3.824,3.823h0L38.95,9.7h0Z" transform="translate(-22.938 -3.892)"/><path class="d" d="M5.167,40.742l-1.731.192-.037,0h0l-.037,0a.271.271,0,0,1-.036-.012.332.332,0,0,1-.07-.023.344.344,0,0,1-.047-.028.339.339,0,0,1-.053-.045.32.32,0,0,1-.034-.043.329.329,0,0,1-.032-.061.313.313,0,0,1-.017-.056c0-.011-.008-.02-.009-.031a.338.338,0,0,1,0-.037.345.345,0,0,1,0-.037l.192-1.731-1.731.192-.038,0a.327.327,0,0,1-.077-.014L.442,43.078l.712-.712a.338.338,0,0,1,.478.478l-.712.712,4.066-.968a.332.332,0,0,1-.01-.115Z" transform="translate(-0.293 -25.707)"/><path class="e" d="M1.339,49.1a.338.338,0,0,0-.478,0l-.712.712L0,50.438l.627-.149.712-.712A.338.338,0,0,0,1.339,49.1Z" transform="translate(0 -32.439)"/><path class="f" d="M40.364,8.288,36.54,4.465h0l-.478.478h0l3.824,3.823h0Z" transform="translate(-23.874 -2.956)"/><path class="g" d="M16.05,12.741,7.292,21.5l-1.613.179.179-1.613,8.758-8.758-.478-.478L5.38,19.587l-1.613.179-.383.383-.077.323a.324.324,0,0,0,.077.014l.038,0,1.731-.192L4.96,22.023a.338.338,0,0,0,0,.037.345.345,0,0,0,0,.037c0,.011.007.02.009.031a.337.337,0,0,0,.049.117.32.32,0,0,0,.034.043.341.341,0,0,0,.053.045.312.312,0,0,0,.047.028.346.346,0,0,0,.07.023.353.353,0,0,0,.036.012l.037,0h0l.037,0L7.065,22.2l-.192,1.731a.332.332,0,0,0,.01.115l.325-.077.383-.383.179-1.613,8.758-8.758Z" transform="translate(-2.189 -7.169)"/><path class="f" d="M37.536,11.116,33.712,7.293h0l-.478.478h0l.717.717.478.478L35.863,10.4l.478.478.717.717h0Z" transform="translate(-22.002 -4.828)"/></g></svg>