<svg xmlns="http://www.w3.org/2000/svg" width="12.413" height="17.999" viewBox="0 0 12.413 17.999"><defs><style>.a{fill:#e3e4d8;}.b{fill:#d0cebd;}.c{fill:#82c288;}.d{fill:#fff;}.e{fill:#a09893;}</style></defs><g transform="translate(0 0)"><path class="a" d="M12.413,17.067H0V0H9.62l2.793,2.793Zm0,0"/><path class="b" d="M273.656,0V2.793h2.793Zm0,0" transform="translate(-264.036)"/><path class="c" d="M0,353.1H12.413v5.586H0Zm0,0" transform="translate(0 -340.689)"/><path class="d" d="M143.414,468.484h-1.862a.31.31,0,1,1,0-.621h1.862a.31.31,0,1,1,0,.621Zm0,0" transform="translate(-136.277 -451.416)"/><path class="d" d="M141.553,383.31a.31.31,0,0,1-.31-.31v-3.1a.31.31,0,0,1,.621,0V383A.31.31,0,0,1,141.553,383.31Zm0,0" transform="translate(-136.277 -366.242)"/><g transform="translate(1.552 4.034)"><path class="e" d="M46.93,116.62H44.447a.31.31,0,0,1-.31-.31v-1.241a.311.311,0,0,1,.31-.31H46.93a.31.31,0,0,1,.31.31v1.241A.31.31,0,0,1,46.93,116.62ZM44.757,116h1.862v-.621H44.757Zm0,0" transform="translate(-44.137 -114.758)"/><path class="e" d="M46.93,151.932H44.447a.311.311,0,0,1-.31-.31v-1.241a.31.31,0,0,1,.31-.31H46.93a.31.31,0,0,1,.31.31v1.241A.31.31,0,0,1,46.93,151.932Zm-2.172-.621h1.862v-.621H44.757Zm0,0" transform="translate(-44.137 -148.829)"/><path class="e" d="M121.274,151.932h-6.206a.311.311,0,0,1-.31-.31v-1.241a.31.31,0,0,1,.31-.31h6.206a.31.31,0,0,1,.31.31v1.241A.31.31,0,0,1,121.274,151.932Zm-5.9-.621h5.586v-.621h-5.586Zm0,0" transform="translate(-112.275 -148.829)"/><path class="e" d="M46.93,187.241H44.447a.31.31,0,0,1-.31-.31v-1.241a.311.311,0,0,1,.31-.31H46.93a.31.31,0,0,1,.31.31v1.241A.31.31,0,0,1,46.93,187.241Zm-2.172-.621h1.862V186H44.757Zm0,0" transform="translate(-44.137 -182.896)"/><path class="e" d="M121.274,187.241h-6.206a.31.31,0,0,1-.31-.31v-1.241a.311.311,0,0,1,.31-.31h6.206a.31.31,0,0,1,.31.31v1.241A.31.31,0,0,1,121.274,187.241Zm-5.9-.621h5.586V186h-5.586Zm0,0" transform="translate(-112.275 -182.896)"/><path class="e" d="M46.93,222.553H44.447a.311.311,0,0,1-.31-.31V221a.31.31,0,0,1,.31-.31H46.93a.31.31,0,0,1,.31.31v1.241A.31.31,0,0,1,46.93,222.553Zm-2.172-.621h1.862v-.621H44.757Zm0,0" transform="translate(-44.137 -216.968)"/><path class="e" d="M121.274,222.553h-6.206a.311.311,0,0,1-.31-.31V221a.31.31,0,0,1,.31-.31h6.206a.31.31,0,0,1,.31.31v1.241A.31.31,0,0,1,121.274,222.553Zm-5.9-.621h5.586v-.621h-5.586Zm0,0" transform="translate(-112.275 -216.968)"/><path class="e" d="M46.93,257.862H44.447a.31.31,0,0,1-.31-.31V256.31a.31.31,0,0,1,.31-.31H46.93a.31.31,0,0,1,.31.31v1.241A.31.31,0,0,1,46.93,257.862Zm-2.172-.621h1.862v-.621H44.757Zm0,0" transform="translate(-44.137 -251.035)"/><path class="e" d="M121.274,257.862h-6.206a.31.31,0,0,1-.31-.31V256.31a.31.31,0,0,1,.31-.31h6.206a.31.31,0,0,1,.31.31v1.241A.31.31,0,0,1,121.274,257.862Zm-5.9-.621h5.586v-.621h-5.586Zm0,0" transform="translate(-112.275 -251.035)"/></g><path class="d" d="M44.45,383.3a.307.307,0,0,1-.159-.044.31.31,0,0,1-.107-.426l1.862-3.1a.31.31,0,1,1,.532.319l-1.862,3.1A.31.31,0,0,1,44.45,383.3Zm0,0" transform="translate(-42.589 -366.237)"/><path class="d" d="M46.313,383.308a.31.31,0,0,1-.266-.151l-1.862-3.1a.31.31,0,0,1,.532-.319l1.862,3.1a.31.31,0,0,1-.266.47Zm0,0" transform="translate(-42.589 -366.241)"/><path class="d" d="M239.74,383.31h-1.086a.31.31,0,1,1,0-.62h1.086a.465.465,0,0,0,0-.931h-.31a1.086,1.086,0,1,1,0-2.172h1.086a.31.31,0,1,1,0,.621H239.43a.465.465,0,1,0,0,.931h.31a1.086,1.086,0,0,1,0,2.172Zm0,0" transform="translate(-229.965 -366.242)"/></g></svg>