<svg xmlns="http://www.w3.org/2000/svg" width="14.586" height="18" viewBox="0 0 14.586 18"><defs><style>.a{fill:#424a60;}.b{fill:#303644;}.c{fill:#edeada;}.d{fill:#7383bf;}.e{fill:#cec9ae;}</style></defs><path class="a" d="M15.431,2H14.19v.931H11.4V2H5.5V19.381H20.086V2Z" transform="translate(-5.5 -1.381)"/><rect class="b" width="2.783" height="1.546" transform="translate(5.901)"/><path class="c" d="M18.436,5v.932H11.295V5H8.5V20.526H21.231V5Z" transform="translate(-7.572 -3.454)"/><path class="d" d="M22.448,2v.928H19.665V2H17.5V3.856h7.113V2Z" transform="translate(-13.763 -1.381)"/><path class="e" d="M17.83,14.619h-4.02a.309.309,0,1,1,0-.619h4.02a.309.309,0,1,1,0,.619Z" transform="translate(-11.013 -9.655)"/><path class="e" d="M17.83,45.619h-4.02a.309.309,0,1,1,0-.619h4.02a.309.309,0,1,1,0,.619Z" transform="translate(-11.013 -31.033)"/><path class="e" d="M22.827,20.619H13.811a.309.309,0,1,1,0-.619h9.016a.309.309,0,1,1,0,.619Z" transform="translate(-11.026 -13.792)"/><path class="e" d="M22.827,32.619H13.811a.309.309,0,1,1,0-.619h9.016a.309.309,0,1,1,0,.619Z" transform="translate(-11.026 -22.068)"/><path class="e" d="M22.827,39.619H13.811a.309.309,0,1,1,0-.619h9.016a.309.309,0,1,1,0,.619Z" transform="translate(-11.026 -26.895)"/><path class="e" d="M18.139,26.619h-4.33a.309.309,0,0,1,0-.619h4.33a.309.309,0,0,1,0,.619Z" transform="translate(-11.013 -17.93)"/><path class="e" d="M37.974,26.619H35.809a.309.309,0,0,1,0-.619h2.165a.309.309,0,1,1,0,.619Z" transform="translate(-26.182 -17.93)"/><path class="e" d="M31.809,26.625a.306.306,0,0,1-.22-.09.324.324,0,0,1-.09-.22.305.305,0,0,1,.09-.22.321.321,0,0,1,.439,0,.306.306,0,0,1,.09.22.306.306,0,0,1-.309.309Z" transform="translate(-23.43 -17.936)"/></svg>