<svg xmlns="http://www.w3.org/2000/svg" width="18" height="18" viewBox="0 0 18 18"><defs><style>.a{fill:#90bae1;}.b{fill:#bdc3c7;}.c{fill:#2c3e50;}.d{fill:#4482c3;}.e{fill:#285680;}.f{fill:#cc4b4c;}.g{fill:#4fba6f;}</style></defs><g transform="translate(0 0)"><g transform="translate(0)"><path class="a" d="M5.586,12H3.79a1.552,1.552,0,0,0-1.148.508L0,15.414l8.793.931L18,15.414l-2.642-2.906A1.552,1.552,0,0,0,14.21,12h-1.8" transform="translate(0 -8.276)"/><path class="b" d="M18.31,0h6.207a.31.31,0,0,1,.31.31V5.586H18V.31A.31.31,0,0,1,18.31,0Z" transform="translate(-12.414)"/><path class="c" d="M23.379,17.621H15.31a.31.31,0,1,1,0-.621h8.069a.31.31,0,1,1,0,.621Z" transform="translate(-10.345 -11.724)"/><path d="M25.276,46.621H20.31a.31.31,0,0,1,0-.621h4.965a.31.31,0,1,1,0,.621Z" transform="translate(-13.793 -31.724)"/><path class="d" d="M13.655,30.448h2.793A1.552,1.552,0,0,0,18,28.9V23H0v5.9a1.552,1.552,0,0,0,1.552,1.552H4.345" transform="translate(0 -15.862)"/><path class="c" d="M13.31,35.276H13V32.483A2.483,2.483,0,0,1,15.483,30h4.965a2.483,2.483,0,0,1,2.483,2.483v2.793h-.31" transform="translate(-8.966 -20.69)"/><path d="M25.276,46.621H20.31a.31.31,0,0,1,0-.621h4.965a.31.31,0,1,1,0,.621Z" transform="translate(-13.793 -31.724)"/><ellipse class="e" cx="0.621" cy="0.621" rx="0.621" ry="0.621" transform="translate(15.517 8.69)"/><ellipse class="f" cx="0.31" cy="0.31" rx="0.31" ry="0.31" transform="translate(15.827 10.862)"/><ellipse class="g" cx="0.31" cy="0.31" rx="0.31" ry="0.31" transform="translate(15.827 11.793)"/><ellipse class="g" cx="0.31" cy="0.31" rx="0.31" ry="0.31" transform="translate(15.827 12.724)"/><path class="e" d="M17.621,39h6.207a.621.621,0,0,1,.621.621v1.241H17V39.621A.621.621,0,0,1,17.621,39Z" transform="translate(-11.724 -26.897)"/><path class="a" d="M3.31,26.931a.31.31,0,0,1-.31-.31v-.31a.31.31,0,0,1,.621,0v.31A.31.31,0,0,1,3.31,26.931Z" transform="translate(-2.069 -17.931)"/><path class="a" d="M3.31,33.483a.31.31,0,0,1-.31-.31V31.31a.31.31,0,0,1,.621,0v1.862A.31.31,0,0,1,3.31,33.483Z" transform="translate(-2.069 -21.379)"/><path class="d" d="M18.819,46.724H21.1a.31.31,0,0,0,.248-.5l-1.49-1.986L18.931,43H11.483l-.931,1.241-1.49,1.986a.31.31,0,0,0,.248.5h2.284" transform="translate(-6.207 -29.655)"/><path class="b" d="M23.969,50.414h-7.1a.31.31,0,0,1-.282-.439l1.27-2.793A.31.31,0,0,1,18.133,47H22.7a.31.31,0,0,1,.282.182l1.27,2.793a.31.31,0,0,1-.282.439Z" transform="translate(-11.416 -32.414)"/><path class="c" d="M26.793,50.621H24.31a.31.31,0,1,1,0-.621h2.483a.31.31,0,0,1,0,.621Z" transform="translate(-16.552 -34.483)"/><path class="c" d="M26.034,53.621H22.31a.31.31,0,1,1,0-.621h3.724a.31.31,0,1,1,0,.621Z" transform="translate(-15.172 -36.552)"/></g></g></svg>