<?xml version="1.0" encoding="utf-8"?>
<!-- Svg Vector Icons : http://www.onlinewebfonts.com/icon -->
<!DOCTYPE svg PUBLIC "-//W3C//DTD SVG 1.1//EN" "http://www.w3.org/Graphics/SVG/1.1/DTD/svg11.dtd">
<svg version="1.1" xmlns="http://www.w3.org/2000/svg" xmlns:xlink="http://www.w3.org/1999/xlink" x="0px" y="0px" viewBox="0 0 1000 1000" enable-background="new 0 0 1000 1000" xml:space="preserve">
<metadata> Svg Vector Icons : http://www.onlinewebfonts.com/icon </metadata>
<g><path d="M928.8,989.9H71.3c-33.8,0-61.3-27.4-61.3-61.3V163c0-33.8,27.4-61.3,61.3-61.3H316v-61c0-16.9,13.7-30.6,30.6-30.6c16.9,0,30.6,13.7,30.6,30.6v61h245v-61c0-16.9,13.7-30.6,30.6-30.6c16.9,0,30.6,13.7,30.6,30.6v61h245.2c33.8,0,61.3,27.4,61.3,61.3v765.6C990,962.5,962.6,989.9,928.8,989.9z M928.8,163H683.5v30.9c0,16.9-13.7,30.6-30.6,30.6c-16.9,0-30.6-13.7-30.6-30.6V163h-245v30.9c0,16.9-13.7,30.6-30.6,30.6c-16.9,0-30.6-13.7-30.6-30.6V163H71.3v765.6h857.5V163z M625.9,427.1L474.2,741.9h-71.7l151.1-301v-1.1H384.9v-56.2h240.9V427.1z"/></g>
</svg>