<svg xmlns="http://www.w3.org/2000/svg" width="20.249" height="20.004" viewBox="0 0 20.249 20.004"><defs><style>.a{fill:#66686d;}.b{fill:#ea3d3d;}.c{fill:#e8eaef;}</style></defs><g transform="translate(0 0)"><path class="a" d="M42.32,23.1l4.721-20H54.5l4.721,20" transform="translate(-40.646 -3.094)"/><g transform="translate(0 0)"><path class="b" d="M356.7,23.1l-5.656-20h-.739l4.721,20" transform="translate(-336.456 -3.094)"/><path class="b" d="M0,23.1l5.656-20h.739l-4.721,20" transform="translate(0 -3.094)"/></g><g transform="translate(9.022)"><path class="c" d="M243.6,4.58h-1.065l.046-1.487h.973Z" transform="translate(-241.969 -3.093)"/><path class="c" d="M241.18,62.758h-1.273l.08-2.611H241.1Z" transform="translate(-239.441 -57.891)"/><path class="c" d="M238.337,153.967H236.82l.092-2.98h1.333Z" transform="translate(-236.476 -145.138)"/><path class="c" d="M234.744,265h-1.826l.112-3.636h1.6Z" transform="translate(-232.729 -251.153)"/><path class="c" d="M230.334,402.018h-2.2l.136-4.4H230.2Z" transform="translate(-228.129 -382.014)"/></g></g></svg>